<?xml version="1.0" encoding="UTF-8" standalone="no"?>
<!-- Created with Inkscape (http://www.inkscape.org/) -->

<svg
   xmlns:dc="http://purl.org/dc/elements/1.1/"
   xmlns:cc="http://creativecommons.org/ns#"
   xmlns:rdf="http://www.w3.org/1999/02/22-rdf-syntax-ns#"
   xmlns:svg="http://www.w3.org/2000/svg"
   xmlns="http://www.w3.org/2000/svg"
   xmlns:sodipodi="http://sodipodi.sourceforge.net/DTD/sodipodi-0.dtd"
   xmlns:inkscape="http://www.inkscape.org/namespaces/inkscape"
   width="210mm"
   height="297mm"
   viewBox="0 0 210 297"
   version="1.1"
   id="svg8"
   inkscape:version="0.92.3 (2405546, 2018-03-11)"
   sodipodi:docname="laboratorio-logo.svg">
  <defs
     id="defs2">
	

		
		
		
		
		
	
	
	
	
	
</defs>
  <sodipodi:namedview
     id="base"
     pagecolor="#ffffff"
     bordercolor="#666666"
     borderopacity="1.0"
     inkscape:pageopacity="0.0"
     inkscape:pageshadow="2"
     inkscape:zoom="0.7"
     inkscape:cx="426.28825"
     inkscape:cy="578.88461"
     inkscape:document-units="mm"
     inkscape:current-layer="layer1"
     showgrid="true"
     showguides="true"
     inkscape:guide-bbox="true"
     inkscape:window-width="1920"
     inkscape:window-height="1001"
     inkscape:window-x="-9"
     inkscape:window-y="-9"
     inkscape:window-maximized="1">
    <inkscape:grid
       type="xygrid"
       id="grid3713" />
    <sodipodi:guide
       position="105.83333,275.16667"
       orientation="1,0"
       id="guide3766"
       inkscape:locked="false" />
    <sodipodi:guide
       position="105.83333,164.04167"
       orientation="0,1"
       id="guide3768"
       inkscape:locked="false" />
  </sodipodi:namedview>
  <metadata
     id="metadata5">
    <rdf:RDF>
      <cc:Work
         rdf:about="">
        <dc:format>image/svg+xml</dc:format>
        <dc:type
           rdf:resource="http://purl.org/dc/dcmitype/StillImage" />
        <dc:title></dc:title>
      </cc:Work>
    </rdf:RDF>
  </metadata>
  <g
     inkscape:label="Capa 1"
     inkscape:groupmode="layer"
     id="layer1">
    <g
       id="g3836"
       transform="translate(5.29167,3.3333334e-6)">
      <path
         transform="matrix(0.95022521,0,0,0.97043379,0.88016734,1.1148925)"
         inkscape:transform-center-y="-24.694445"
         d="m 193.98366,190.38919 -88.15033,0 -88.150337,0 44.075167,-76.34042 44.07517,-76.340434 44.07516,76.340424 z"
         inkscape:randomized="0"
         inkscape:rounded="0"
         inkscape:flatsided="false"
         sodipodi:arg2="1.5707963"
         sodipodi:arg1="0.52359878"
         sodipodi:r2="50.89362"
         sodipodi:r1="101.78724"
         sodipodi:cy="139.49557"
         sodipodi:cx="105.83333"
         sodipodi:sides="3"
         id="path3832"
         style="fill:#00ff00;stroke-width:0.26458332"
         sodipodi:type="star" />
      <path
         id="path3744"
         d="M 189.87208,177.01356 110.81691,39.528227 c -2.35191,-4.074163 -5.41759,-6.324279 -8.62651,-6.324279 -3.26988,0 -6.39712,2.305279 -8.81029,6.487331 L 14.3222,176.93493 c -2.41012,4.17291 -2.80632,8.27085 -1.0929,11.23778 1.67867,2.90537 5.16127,4.50541 9.81572,4.50541 h 158.10424 c 4.66603,0 8.15442,-1.59394 9.82731,-4.48529 1.69878,-2.94652 1.29679,-7.01764 -1.10449,-11.17927 z m -20.53875,3.56977 H 34.81767 c -4.75167,0 -6.69854,-3.36862 -4.32682,-7.48576 L 97.83219,56.194262 c 2.37142,-4.117136 6.25022,-4.115917 8.61828,0.0034 l 67.21578,116.896308 c 2.36836,4.11957 0.41875,7.48941 -4.33292,7.48941 z"
         inkscape:connector-curvature="0"
         style="fill:#000000;stroke-width:0.30476987" />
    </g>
    <path
       inkscape:connector-curvature="0"
       d="m 152.68136,133.88058 c -0.24529,-0.19931 -2.46835,-1.87043 -7.15974,-1.87043 -1.24185,0 -2.4837,0.092 -3.71021,0.32197 -0.90454,-6.23988 -6.05589,-9.2755 -6.28586,-9.41347 l -1.25718,-0.73591 -0.8279,1.19584 c -1.04252,1.6098 -1.79376,3.37291 -2.23838,5.24333 -0.84321,3.55689 -0.33728,6.89914 1.47183,9.75077 -2.17707,1.21118 -5.68795,1.51781 -6.39319,1.53314 H 68.312749 c -1.517803,0 -2.744318,1.22651 -2.744318,2.74433 -0.0614,5.07468 0.797237,10.11871 2.529672,14.88677 1.993092,5.24332 4.967379,9.0915 8.830882,11.45255 4.323455,2.65233 11.360558,4.17014 19.348217,4.17014 3.602861,0.0153 7.205738,-0.32196 10.747298,-0.98122 4.92137,-0.90455 9.65877,-2.62166 14.01288,-5.09001 3.58755,-2.08508 6.82247,-4.72208 9.56678,-7.83435 4.58409,-5.19734 7.32841,-10.9926 9.36748,-16.12861 h 0.81258 c 5.02868,0 8.12562,-2.00842 9.82741,-3.69487 1.13452,-1.0732 2.02374,-2.37638 2.59101,-3.83284 l 0.35262,-1.05787 z m -79.002627,4.35412 h 7.773016 c 0.367945,0 0.674584,-0.30663 0.674584,-0.67458 v -6.91445 c 0,-0.36797 -0.306639,-0.67459 -0.674584,-0.68993 h -7.773016 c -0.36796,0 -0.674584,0.30664 -0.674584,0.67459 v 6.92979 c 0,0.38329 0.306624,0.67458 0.674584,0.67458 m 10.716643,0 h 7.77302 c 0.367946,0 0.674567,-0.30663 0.674567,-0.67458 v -6.91445 c 0,-0.36797 -0.306621,-0.67459 -0.674567,-0.68993 h -7.77302 c -0.383281,0 -0.68992,0.30664 -0.68992,0.68993 v 6.91445 c 0,0.38329 0.306639,0.67458 0.68992,0.67458 M 95.25,138.25 h 7.77301 c 0.36794,0 0.67458,-0.30663 0.67458,-0.67458 v -6.91445 c 0,-0.36796 -0.30664,-0.67458 -0.67458,-0.68993 H 95.25 c -0.367966,0 -0.674586,0.30664 -0.674586,0.67459 v 6.92979 c 0,0.36795 0.30662,0.65926 0.674586,0.67458 m 10.74729,0 h 7.77302 c 0.36795,0 0.67458,-0.30663 0.68991,-0.67458 v -6.91445 c 0,-0.38329 -0.30662,-0.68993 -0.68991,-0.68993 h -7.77302 c -0.36795,0 -0.67457,0.30664 -0.67457,0.67459 v 6.92979 c 0,0.36795 0.29129,0.67458 0.67457,0.67458 m -21.61725,-9.96536 h 7.773014 c 0.367957,0 0.674587,-0.30663 0.674587,-0.68991 v -6.91446 c 0,-0.36795 -0.30663,-0.67457 -0.674587,-0.67457 H 84.38004 c -0.383282,0 -0.674584,0.30662 -0.689907,0.67457 v 6.91446 c 0.01535,0.38328 0.321962,0.68991 0.689907,0.68991 m 10.86996,0 h 7.77301 c 0.36794,0 0.67458,-0.30663 0.67458,-0.68991 v -6.91446 c 0,-0.36795 -0.30664,-0.67457 -0.67458,-0.67457 H 95.25 c -0.367966,0 -0.674586,0.30662 -0.674586,0.67457 v 6.91446 c 0,0.38328 0.30662,0.68991 0.674586,0.68991 m 10.74729,0 h 7.77302 c 0.38329,0 0.67458,-0.30663 0.68991,-0.68991 v -6.91446 c 0,-0.38328 -0.30662,-0.67457 -0.68991,-0.67457 h -7.77302 c -0.36795,0 -0.67457,0.30662 -0.67457,0.67457 v 6.91446 c 0,0.38328 0.29129,0.68991 0.67457,0.68991 m 0,-9.95008 h 7.77302 c 0.38329,0 0.68991,-0.30662 0.68991,-0.6899 v -6.92978 c 0,-0.36796 -0.30662,-0.67459 -0.68991,-0.67459 h -7.77302 c -0.36795,0 -0.67457,0.30663 -0.67457,0.67459 v 6.92978 c 0,0.38328 0.29129,0.6899 0.67457,0.6899 m 10.82396,19.91548 h 7.77302 c 0.36795,0 0.67458,-0.30663 0.67458,-0.67459 v -6.91446 c 0,-0.38328 -0.30663,-0.67457 -0.67458,-0.68991 h -7.77302 c -0.36795,0 -0.67458,0.30663 -0.67458,0.67459 v 6.92978 c 0,0.36796 0.30663,0.67459 0.67458,0.67459"
       style="fill:#000000;stroke-width:0.15331388"
       id="path3784" />
    <g
       id="g3974"
       transform="matrix(0.40623301,0,0,0.41340258,1.4166099,90.736194)">
		<path
   inkscape:connector-curvature="0"
   style="fill:#285680"
   d="m 504.464,324.268 c -1.28,0 -2.586,-0.29 -3.806,-0.896 l -18.807,-9.412 c -7.569,-3.78 -16.401,-4.147 -24.252,-1.007 l -10.854,4.343 c -12.365,4.949 -26.308,4.369 -38.212,-1.587 l -1.758,-0.887 c -4.207,-2.116 -5.914,-7.245 -3.797,-11.452 2.116,-4.207 7.228,-5.922 11.46,-3.797 l 1.741,0.87 c 7.526,3.772 16.358,4.147 24.235,1.007 l 10.854,-4.343 c 12.365,-4.949 26.308,-4.369 38.212,1.587 l 18.807,9.404 c 4.215,2.116 5.931,7.236 3.823,11.452 -1.502,2.994 -4.515,4.718 -7.646,4.718"
   id="path3948" />

		<path
   inkscape:connector-curvature="0"
   style="fill:#285680"
   d="m 291.13,319.739 c -7.177,0 -14.345,-1.63 -20.873,-4.898 -8.303,-4.156 -18.219,-4.156 -26.505,-0.009 -4.215,2.108 -9.335,0.401 -11.452,-3.814 -2.108,-4.215 -0.393,-9.344 3.823,-11.452 13.056,-6.528 28.681,-6.537 41.754,0 8.303,4.156 18.219,4.156 26.505,0.009 13.082,-6.537 28.689,-6.545 41.771,-0.009 4.215,2.099 5.931,7.228 3.823,11.443 -2.116,4.215 -7.236,5.931 -11.452,3.823 -8.303,-4.147 -18.21,-4.156 -26.496,0 -6.545,3.269 -13.721,4.907 -20.898,4.907"
   id="path3950" />

		<path
   inkscape:connector-curvature="0"
   style="fill:#285680"
   d="m 9.539,324.272 c -3.379,0 -6.588,-2.031 -7.927,-5.367 -1.749,-4.378 0.384,-9.344 4.762,-11.093 l 26.761,-10.701 c 12.356,-4.949 26.308,-4.378 38.212,1.587 l 1.741,0.87 c 8.303,4.147 18.21,4.156 26.496,0 13.09,-6.545 28.698,-6.528 41.771,0 8.303,4.147 18.21,4.147 26.496,0 4.224,-2.099 9.344,-0.393 11.46,3.814 2.108,4.215 0.401,9.335 -3.814,11.452 -13.09,6.537 -28.698,6.537 -41.771,0 -8.303,-4.147 -18.21,-4.156 -26.496,0 -13.09,6.537 -28.698,6.537 -41.771,0 l -1.741,-0.87 c -7.569,-3.78 -16.41,-4.156 -24.252,-1.007 l -26.761,10.701 c -1.033,0.418 -2.108,0.614 -3.166,0.614"
   id="path3952" />

		<path
   inkscape:connector-curvature="0"
   style="fill:#285680"
   d="m 429.414,371.83 c -7.177,0 -14.336,-1.647 -20.881,-4.924 l -1.758,-0.887 c -8.61,-4.318 -18.569,-3.746 -27.273,0.401 -9.643,4.591 -20.591,5.683 -30.848,3.277 -5.436,-1.28 -8.354,-7.211 -5.854,-12.203 1.818,-3.644 5.905,-5.299 9.873,-4.386 6.468,1.502 13.372,0.811 19.439,-2.074 13.107,-6.238 28.006,-7.458 40.969,-0.947 l 3.029,1.519 c 7.578,3.814 16.427,4.19 24.303,1.041 l 10.854,-4.335 c 4.326,-1.758 9.335,0.367 11.085,4.745 1.749,4.378 -0.384,9.344 -4.753,11.093 l -10.854,4.343 c -5.564,2.228 -11.46,3.337 -17.331,3.337"
   id="path3954" />

		<path
   inkscape:connector-curvature="0"
   style="fill:#285680"
   d="m 222.872,370.939 c -7.168,0 -14.336,-1.63 -20.873,-4.898 -8.32,-4.164 -18.219,-4.164 -26.505,-0.009 -13.09,6.537 -28.698,6.537 -41.771,0 -4.215,-2.108 -5.931,-7.228 -3.823,-11.452 2.125,-4.215 7.236,-5.914 11.452,-3.814 8.303,4.156 18.21,4.147 26.496,0.009 13.073,-6.545 28.689,-6.545 41.762,-0.009 8.311,4.156 18.202,4.156 26.513,0 4.215,-2.099 9.335,-0.401 11.452,3.814 2.108,4.224 0.393,9.344 -3.823,11.452 -6.535,3.269 -13.703,4.907 -20.88,4.907"
   id="path3956" />

		<path
   inkscape:connector-curvature="0"
   style="fill:#285680"
   d="m 9.539,375.472 c -3.379,0 -6.588,-2.031 -7.927,-5.367 -1.749,-4.378 0.384,-9.344 4.762,-11.093 l 26.761,-10.701 c 12.356,-4.949 26.308,-4.378 38.212,1.587 l 1.741,0.87 c 4.215,2.108 5.931,7.236 3.823,11.452 -2.116,4.215 -7.245,5.922 -11.452,3.814 l -1.741,-0.87 c -7.569,-3.78 -16.41,-4.156 -24.252,-1.007 l -26.761,10.701 c -1.033,0.418 -2.108,0.614 -3.166,0.614"
   id="path3958" />

		<path
   inkscape:connector-curvature="0"
   style="fill:#285680"
   d="m 504.464,426.668 c -1.28,0 -2.586,-0.29 -3.806,-0.896 l -18.807,-9.412 c -7.569,-3.78 -16.401,-4.156 -24.252,-1.007 l -10.854,4.343 c -12.365,4.949 -26.308,4.369 -38.212,-1.587 l -1.758,-0.887 c -4.207,-2.116 -5.914,-7.245 -3.797,-11.452 2.116,-4.207 7.228,-5.914 11.46,-3.797 l 1.741,0.87 c 7.526,3.78 16.358,4.147 24.235,1.007 l 10.854,-4.343 c 12.365,-4.949 26.308,-4.369 38.212,1.587 l 18.807,9.404 c 4.215,2.116 5.931,7.236 3.823,11.452 -1.502,2.994 -4.515,4.718 -7.646,4.718"
   id="path3960" />

		<path
   inkscape:connector-curvature="0"
   style="fill:#285680"
   d="m 291.13,422.139 c -7.177,0 -14.345,-1.63 -20.873,-4.898 -8.303,-4.156 -18.219,-4.156 -26.505,-0.009 -4.215,2.116 -9.335,0.41 -11.452,-3.814 -2.108,-4.215 -0.393,-9.344 3.823,-11.452 13.056,-6.528 28.681,-6.537 41.754,0 8.303,4.156 18.219,4.156 26.505,0.009 4.215,-2.116 9.353,-0.41 11.46,3.806 2.108,4.224 0.401,9.344 -3.814,11.452 -6.545,3.268 -13.721,4.906 -20.898,4.906"
   id="path3962" />

		<path
   inkscape:connector-curvature="0"
   style="fill:#285680"
   d="m 86.339,422.139 c -7.177,0 -14.345,-1.638 -20.881,-4.907 l -1.741,-0.87 c -7.569,-3.789 -16.41,-4.164 -24.252,-1.007 -4.343,1.724 -9.344,-0.375 -11.093,-4.762 -1.749,-4.369 0.384,-9.335 4.762,-11.085 12.356,-4.949 26.308,-4.378 38.212,1.587 l 1.741,0.87 c 8.303,4.156 18.21,4.156 26.496,0.009 13.09,-6.545 28.698,-6.537 41.771,-0.009 4.215,2.108 5.931,7.236 3.823,11.452 -2.125,4.224 -7.236,5.931 -11.452,3.814 -8.303,-4.147 -18.21,-4.156 -26.496,0 -6.537,3.27 -13.722,4.908 -20.89,4.908"
   id="path3964" />

		<path
   inkscape:connector-curvature="0"
   style="fill:#285680"
   d="m 504.464,477.868 c -1.28,0 -2.586,-0.29 -3.806,-0.896 l -18.807,-9.412 c -7.569,-3.789 -16.401,-4.156 -24.252,-1.007 l -10.854,4.343 c -12.365,4.949 -26.308,4.369 -38.212,-1.587 -4.215,-2.108 -5.931,-7.236 -3.814,-11.452 2.116,-4.215 7.228,-5.931 11.443,-3.814 7.561,3.772 16.392,4.147 24.252,1.007 l 10.854,-4.343 c 12.365,-4.949 26.308,-4.369 38.212,1.587 l 18.807,9.404 c 4.215,2.116 5.931,7.236 3.823,11.452 -1.502,2.994 -4.515,4.718 -7.646,4.718"
   id="path3966" />

		<path
   inkscape:connector-curvature="0"
   style="fill:#285680"
   d="m 291.13,473.338 c -7.177,0 -14.345,-1.63 -20.873,-4.898 -4.215,-2.108 -5.931,-7.236 -3.823,-11.452 2.116,-4.224 7.245,-5.922 11.443,-3.823 8.303,4.156 18.219,4.156 26.505,0.009 13.082,-6.537 28.689,-6.545 41.771,-0.009 4.215,2.099 5.931,7.228 3.823,11.443 -2.116,4.224 -7.236,5.931 -11.452,3.823 -8.303,-4.147 -18.21,-4.156 -26.496,0 -6.545,3.269 -13.721,4.907 -20.898,4.907"
   id="path3968" />

		<path
   inkscape:connector-curvature="0"
   style="fill:#285680"
   d="m 154.597,473.335 c -7.168,0 -14.345,-1.63 -20.873,-4.898 -4.215,-2.108 -5.931,-7.236 -3.823,-11.452 2.116,-4.215 7.236,-5.922 11.452,-3.814 8.303,4.147 18.21,4.147 26.496,0 13.073,-6.545 28.689,-6.545 41.762,-0.009 4.215,2.108 5.939,7.236 3.831,11.46 -2.125,4.215 -7.236,5.922 -11.443,3.814 -8.32,-4.156 -18.219,-4.156 -26.505,-0.009 -6.544,3.278 -13.721,4.908 -20.897,4.908"
   id="path3970" />

		<path
   inkscape:connector-curvature="0"
   style="fill:#285680"
   d="m 9.539,477.872 c -3.379,0 -6.588,-2.031 -7.927,-5.367 -1.749,-4.378 0.384,-9.344 4.762,-11.093 l 26.761,-10.701 c 12.356,-4.949 26.308,-4.378 38.212,1.587 l 1.741,0.87 c 4.215,2.108 5.931,7.236 3.823,11.452 -2.116,4.215 -7.245,5.922 -11.452,3.814 l -1.741,-0.87 c -7.569,-3.789 -16.41,-4.156 -24.252,-1.007 l -26.761,10.701 c -1.033,0.418 -2.108,0.614 -3.166,0.614"
   id="path3972" />

	</g>
  </g>
</svg>
